<svg xmlns="http://www.w3.org/2000/svg" xmlns:xlink="http://www.w3.org/1999/xlink" width="393" zoomAndPan="magnify" viewBox="0 0 294.75 123.000003" height="164" preserveAspectRatio="xMidYMid meet" version="1.0"><defs><g/></defs><g fill="#023047" fill-opacity="1"><g transform="translate(40.265883, 71.072129)"><g><path d="M 18.710938 -12.824219 C 20.554688 -13.835938 21.78125 -15.820312 21.78125 -18.351562 C 21.78125 -22.683594 19.289062 -25.285156 14.230469 -25.285156 L 4.839844 -25.285156 C 3.105469 -25.285156 2.203125 -24.203125 2.203125 -22.539062 L 2.203125 -2.746094 C 2.203125 -1.082031 3.105469 0 4.839844 0 L 14.953125 0 C 19.289062 0 22.683594 -2.09375 22.683594 -6.863281 C 22.683594 -9.96875 21.203125 -11.992188 18.710938 -12.824219 Z M 7.441406 -4.335938 L 7.441406 -10.476562 L 13.941406 -10.476562 C 16.039062 -10.476562 17.410156 -9.464844 17.410156 -7.441406 C 17.410156 -5.347656 15.929688 -4.335938 13.941406 -4.335938 Z M 7.441406 -14.808594 L 7.441406 -20.949219 L 13.328125 -20.949219 C 15.425781 -20.949219 16.542969 -19.578125 16.542969 -17.84375 C 16.542969 -16.109375 15.425781 -14.808594 13.328125 -14.808594 Z M 7.441406 -14.808594 "/></g></g></g><g fill="#023047" fill-opacity="1"><g transform="translate(64.394987, 71.072129)"><g><path d="M 4.550781 -18.421875 C 2.960938 -18.421875 2.203125 -17.375 2.203125 -15.894531 L 2.203125 -6.285156 C 2.203125 -2.023438 4.480469 0.359375 8.523438 0.359375 C 11.304688 0.359375 13.222656 -0.976562 14.230469 -3.179688 L 14.230469 -1.84375 C 14.230469 -0.503906 14.992188 0.359375 16.363281 0.359375 C 17.734375 0.359375 18.496094 -0.503906 18.496094 -1.84375 L 18.496094 -15.894531 C 18.496094 -17.410156 17.664062 -18.421875 16.074219 -18.421875 C 14.484375 -18.421875 13.691406 -17.410156 13.691406 -15.894531 L 13.691406 -7.40625 C 13.691406 -5.164062 12.425781 -3.828125 10.332031 -3.828125 C 8.234375 -3.828125 7.007812 -5.164062 7.007812 -7.40625 L 7.007812 -15.894531 C 7.007812 -17.375 6.140625 -18.421875 4.550781 -18.421875 Z M 4.550781 -18.421875 "/></g></g></g><g fill="#023047" fill-opacity="1"><g transform="translate(84.911958, 71.072129)"><g><path d="M 3.105469 -18.0625 C 1.949219 -18.0625 1.15625 -17.445312 1.15625 -16.21875 C 1.15625 -14.992188 1.949219 -14.414062 3.105469 -14.414062 L 10.367188 -14.414062 L 1.589844 -3.070312 C 1.335938 -2.78125 1.15625 -2.347656 1.15625 -1.84375 C 1.15625 -0.613281 1.949219 0 3.105469 0 L 15.53125 0 C 16.6875 0 17.445312 -0.613281 17.445312 -1.84375 C 17.445312 -3.070312 16.6875 -3.648438 15.53125 -3.648438 L 8.273438 -3.648438 L 17.085938 -14.953125 C 17.375 -15.351562 17.445312 -15.714844 17.445312 -16.21875 C 17.445312 -17.445312 16.6875 -18.0625 15.53125 -18.0625 Z M 3.105469 -18.0625 "/></g></g></g><g fill="#023047" fill-opacity="1"><g transform="translate(103.478366, 71.072129)"><g><path d="M 3.105469 -18.0625 C 1.949219 -18.0625 1.15625 -17.445312 1.15625 -16.21875 C 1.15625 -14.992188 1.949219 -14.414062 3.105469 -14.414062 L 10.367188 -14.414062 L 1.589844 -3.070312 C 1.335938 -2.78125 1.15625 -2.347656 1.15625 -1.84375 C 1.15625 -0.613281 1.949219 0 3.105469 0 L 15.53125 0 C 16.6875 0 17.445312 -0.613281 17.445312 -1.84375 C 17.445312 -3.070312 16.6875 -3.648438 15.53125 -3.648438 L 8.273438 -3.648438 L 17.085938 -14.953125 C 17.375 -15.351562 17.445312 -15.714844 17.445312 -16.21875 C 17.445312 -17.445312 16.6875 -18.0625 15.53125 -18.0625 Z M 3.105469 -18.0625 "/></g></g></g><g fill="#219ebc" fill-opacity="1"><g transform="translate(123.025845, 71.243249)"><g><path d="M 17.09375 -6.609375 C 17.09375 -4.609375 16.132812 -2.929688 14.21875 -1.578125 C 12.300781 -0.234375 10.078125 0.4375 7.546875 0.4375 C 5.578125 0.4375 3.910156 0.015625 2.546875 -0.828125 C 1.179688 -1.671875 0.5 -2.476562 0.5 -3.25 C 0.882812 -4.1875 1.617188 -5.195312 2.703125 -6.28125 C 3.785156 -7.363281 4.785156 -7.929688 5.703125 -7.984375 C 6.304688 -7.722656 6.867188 -7.066406 7.390625 -6.015625 C 7.910156 -4.960938 8.328125 -3.753906 8.640625 -2.390625 C 9.929688 -2.429688 10.578125 -3.164062 10.578125 -4.59375 C 10.578125 -5.53125 10.222656 -6.675781 9.515625 -8.03125 C 8.804688 -9.394531 8.03125 -10.664062 7.1875 -11.84375 C 6.34375 -13.03125 5.566406 -14.34375 4.859375 -15.78125 C 4.148438 -17.226562 3.796875 -18.492188 3.796875 -19.578125 C 3.796875 -21.359375 4.613281 -22.816406 6.25 -23.953125 C 7.882812 -25.085938 9.707031 -25.65625 11.71875 -25.65625 C 13.726562 -25.65625 15.289062 -25.21875 16.40625 -24.34375 C 17.53125 -23.476562 18.09375 -22.476562 18.09375 -21.34375 C 18.09375 -20.40625 17.898438 -19.65625 17.515625 -19.09375 C 17.128906 -18.53125 16.820312 -18.097656 16.59375 -17.796875 C 16.363281 -17.492188 16.054688 -17.171875 15.671875 -16.828125 C 14.953125 -16.203125 14.398438 -15.75 14.015625 -15.46875 L 13.46875 -15.0625 C 14.894531 -13.300781 15.96875 -11.253906 16.6875 -8.921875 C 16.957031 -8.078125 17.09375 -7.304688 17.09375 -6.609375 Z M 15.203125 -21.09375 C 15.203125 -22.226562 14.484375 -22.796875 13.046875 -22.796875 C 12.203125 -22.796875 11.519531 -22.613281 11 -22.25 C 10.476562 -21.894531 10.21875 -21.441406 10.21875 -20.890625 C 10.21875 -20.347656 10.441406 -19.691406 10.890625 -18.921875 C 11.335938 -18.160156 11.691406 -17.617188 11.953125 -17.296875 C 12.535156 -17.585938 13.222656 -18.117188 14.015625 -18.890625 C 14.804688 -19.660156 15.203125 -20.394531 15.203125 -21.09375 Z M 15.203125 -21.09375 "/></g></g></g><g fill="#219ebc" fill-opacity="1"><g transform="translate(141.376293, 71.243249)"><g><path d="M 10.1875 -13.578125 C 9.4375 -13.578125 8.796875 -12.914062 8.265625 -11.59375 C 7.742188 -10.269531 7.484375 -8.9375 7.484375 -7.59375 C 7.484375 -4.625 8.335938 -3.140625 10.046875 -3.140625 C 11.128906 -3.140625 12.359375 -3.660156 13.734375 -4.703125 L 14.890625 -3.109375 C 13.867188 -1.992188 12.65625 -1.125 11.25 -0.5 C 9.84375 0.125 8.441406 0.4375 7.046875 0.4375 C 5.171875 0.4375 3.644531 -0.132812 2.46875 -1.28125 C 1.300781 -2.425781 0.71875 -4.15625 0.71875 -6.46875 C 0.71875 -9.257812 1.578125 -11.546875 3.296875 -13.328125 C 5.023438 -15.109375 7.285156 -16 10.078125 -16 C 11.878906 -16 13.296875 -15.628906 14.328125 -14.890625 C 15.367188 -14.160156 15.890625 -13.234375 15.890625 -12.109375 C 15.890625 -10.992188 15.554688 -10.03125 14.890625 -9.21875 C 14.085938 -9.21875 13.222656 -9.363281 12.296875 -9.65625 C 11.367188 -9.957031 10.628906 -10.335938 10.078125 -10.796875 L 10.625 -13.515625 C 10.476562 -13.554688 10.332031 -13.578125 10.1875 -13.578125 Z M 10.1875 -13.578125 "/></g></g></g><g fill="#219ebc" fill-opacity="1"><g transform="translate(156.692419, 71.243249)"><g><path d="M 11.890625 -24.59375 C 11.890625 -22.914062 11.273438 -19.453125 10.046875 -14.203125 C 12.117188 -15.378906 13.75 -15.96875 14.9375 -15.96875 C 16.125 -15.96875 17.003906 -15.644531 17.578125 -15 C 18.160156 -14.363281 18.453125 -13.570312 18.453125 -12.625 C 18.453125 -11.675781 18.1875 -10.179688 17.65625 -8.140625 C 17.132812 -6.109375 16.875 -4.78125 16.875 -4.15625 C 16.875 -3.53125 16.96875 -3.21875 17.15625 -3.21875 L 19.03125 -3.71875 L 19.6875 -1.921875 C 18.9375 -1.359375 17.90625 -0.820312 16.59375 -0.3125 C 15.28125 0.1875 14.117188 0.4375 13.109375 0.4375 C 11.160156 0.4375 10.1875 -0.671875 10.1875 -2.890625 C 10.1875 -3.898438 10.4375 -5.390625 10.9375 -7.359375 C 11.445312 -9.335938 11.703125 -10.585938 11.703125 -11.109375 C 11.703125 -11.628906 11.519531 -11.890625 11.15625 -11.890625 C 10.65625 -11.890625 10.039062 -11.644531 9.3125 -11.15625 C 8.226562 -6.5625 7.6875 -3.359375 7.6875 -1.546875 L 7.734375 -0.6875 C 5.273438 -0.0390625 3.070312 0.28125 1.125 0.28125 C 0.976562 0.21875 0.90625 -0.160156 0.90625 -0.859375 C 0.90625 -2.359375 1.617188 -6.054688 3.046875 -11.953125 C 4.484375 -17.859375 5.203125 -21.832031 5.203125 -23.875 C 5.203125 -24.5 5.15625 -25.054688 5.0625 -25.546875 C 7.394531 -26.191406 9.582031 -26.515625 11.625 -26.515625 C 11.800781 -26.109375 11.890625 -25.46875 11.890625 -24.59375 Z M 11.890625 -24.59375 "/></g></g></g><g fill="#219ebc" fill-opacity="1"><g transform="translate(176.343289, 71.243249)"><g><path d="M 0.71875 -6.53125 C 0.71875 -9.519531 1.625 -11.84375 3.4375 -13.5 C 5.257812 -15.164062 7.507812 -16 10.1875 -16 C 12.039062 -16 13.523438 -15.59375 14.640625 -14.78125 C 15.765625 -13.976562 16.328125 -12.90625 16.328125 -11.5625 C 16.328125 -10.570312 16.023438 -9.691406 15.421875 -8.921875 C 14.816406 -8.148438 14.082031 -7.5625 13.21875 -7.15625 C 11.382812 -6.332031 9.796875 -5.835938 8.453125 -5.671875 L 7.546875 -5.5625 C 7.816406 -3.96875 8.613281 -3.171875 9.9375 -3.171875 C 10.507812 -3.171875 11.144531 -3.296875 11.84375 -3.546875 C 12.539062 -3.804688 13.097656 -4.066406 13.515625 -4.328125 L 14.125 -4.703125 L 15.28125 -3.140625 C 15.28125 -3.140625 15.148438 -3.007812 14.890625 -2.75 C 14.742188 -2.601562 14.398438 -2.316406 13.859375 -1.890625 C 13.316406 -1.472656 12.75 -1.109375 12.15625 -0.796875 C 11.5625 -0.484375 10.804688 -0.203125 9.890625 0.046875 C 8.984375 0.304688 8.070312 0.4375 7.15625 0.4375 C 5.101562 0.4375 3.515625 -0.15625 2.390625 -1.34375 C 1.273438 -2.539062 0.71875 -4.269531 0.71875 -6.53125 Z M 7.40625 -7.953125 C 8.101562 -8.046875 8.800781 -8.613281 9.5 -9.65625 C 10.195312 -10.707031 10.546875 -11.585938 10.546875 -12.296875 C 10.546875 -13.003906 10.34375 -13.359375 9.9375 -13.359375 C 9.332031 -13.359375 8.773438 -12.890625 8.265625 -11.953125 C 7.765625 -11.015625 7.476562 -9.679688 7.40625 -7.953125 Z M 7.40625 -7.953125 "/></g></g></g><g fill="#219ebc" fill-opacity="1"><g transform="translate(192.092881, 71.243249)"><g><path d="M 13.625 0.4375 C 12.125 0.4375 11.160156 -0.140625 10.734375 -1.296875 C 8.898438 -0.140625 7.265625 0.4375 5.828125 0.4375 C 4.398438 0.4375 3.242188 -0.0507812 2.359375 -1.03125 C 1.484375 -2.007812 1.046875 -3.59375 1.046875 -5.78125 C 1.046875 -8.644531 1.773438 -11.0625 3.234375 -13.03125 C 4.691406 -15.007812 6.578125 -16 8.890625 -16 C 10.015625 -16 11.144531 -15.734375 12.28125 -15.203125 C 13.175781 -19.273438 13.625 -22.203125 13.625 -23.984375 C 13.625 -24.515625 13.585938 -25.046875 13.515625 -25.578125 C 15.753906 -26.203125 17.910156 -26.515625 19.984375 -26.515625 C 20.171875 -26.203125 20.265625 -25.460938 20.265625 -24.296875 C 20.265625 -23.128906 19.71875 -19.988281 18.625 -14.875 C 17.53125 -9.769531 16.984375 -6.351562 16.984375 -4.625 C 16.984375 -3.707031 17.140625 -3.25 17.453125 -3.25 L 19 -3.75 L 19.65625 -1.921875 C 17.53125 -0.347656 15.519531 0.4375 13.625 0.4375 Z M 8.890625 -3.21875 C 9.316406 -3.21875 9.796875 -3.363281 10.328125 -3.65625 L 10.328125 -3.6875 C 10.421875 -5.632812 10.890625 -8.703125 11.734375 -12.890625 C 11.253906 -13.035156 10.90625 -13.109375 10.6875 -13.109375 C 10.1875 -13.109375 9.742188 -12.851562 9.359375 -12.34375 C 8.972656 -11.84375 8.671875 -11.195312 8.453125 -10.40625 C 8.046875 -8.769531 7.84375 -7.160156 7.84375 -5.578125 C 7.84375 -4.003906 8.191406 -3.21875 8.890625 -3.21875 Z M 8.890625 -3.21875 "/></g></g></g><g fill="#219ebc" fill-opacity="1"><g transform="translate(211.671501, 71.243249)"><g><path d="M 1.265625 -2.921875 C 1.265625 -3.929688 1.582031 -5.59375 2.21875 -7.90625 C 2.851562 -10.21875 3.171875 -11.640625 3.171875 -12.171875 C 3.171875 -12.703125 2.738281 -13.472656 1.875 -14.484375 L 1.953125 -15.03125 C 4.140625 -15.507812 6.703125 -15.75 9.640625 -15.75 C 9.835938 -15.34375 9.9375 -14.691406 9.9375 -13.796875 C 9.9375 -12.910156 9.601562 -11.222656 8.9375 -8.734375 C 8.28125 -6.253906 7.953125 -4.785156 7.953125 -4.328125 C 7.953125 -3.703125 8.25 -3.390625 8.84375 -3.390625 C 9.257812 -3.390625 9.78125 -3.546875 10.40625 -3.859375 C 10.476562 -4.242188 10.691406 -5.257812 11.046875 -6.90625 C 11.890625 -10.539062 12.3125 -13.257812 12.3125 -15.0625 C 13.425781 -15.539062 15.316406 -15.78125 17.984375 -15.78125 L 18.96875 -15.78125 C 18.96875 -14.695312 18.644531 -12.578125 18 -9.421875 C 17.363281 -6.273438 17.039062 -4.457031 17.03125 -3.96875 C 17.019531 -3.488281 17.125 -3.25 17.34375 -3.25 L 19.109375 -3.71875 L 19.765625 -1.921875 C 19.066406 -1.359375 18.050781 -0.820312 16.71875 -0.3125 C 15.394531 0.1875 14.226562 0.4375 13.21875 0.4375 C 11.726562 0.4375 10.800781 -0.164062 10.4375 -1.375 C 8.4375 -0.164062 6.523438 0.4375 4.703125 0.4375 C 2.410156 0.4375 1.265625 -0.679688 1.265625 -2.921875 Z M 1.265625 -2.921875 "/></g></g></g><g fill="#219ebc" fill-opacity="1"><g transform="translate(231.250122, 71.243249)"><g><path d="M 10.84375 -2.015625 C 10.070312 -1.347656 9.054688 -0.769531 7.796875 -0.28125 C 6.546875 0.195312 5.410156 0.4375 4.390625 0.4375 C 3.367188 0.4375 2.53125 0.140625 1.875 -0.453125 C 1.226562 -1.046875 0.90625 -1.894531 0.90625 -3 C 0.90625 -4.101562 1.507812 -7.191406 2.71875 -12.265625 C 3.9375 -17.335938 4.546875 -21.097656 4.546875 -23.546875 C 4.546875 -24.078125 4.472656 -24.753906 4.328125 -25.578125 C 6.597656 -26.203125 8.789062 -26.515625 10.90625 -26.515625 C 11.125 -26.128906 11.234375 -25.503906 11.234375 -24.640625 C 11.234375 -23.003906 10.625 -19.429688 9.40625 -13.921875 C 8.195312 -8.421875 7.59375 -5.25 7.59375 -4.40625 C 7.59375 -3.5625 7.734375 -3.140625 8.015625 -3.140625 C 8.253906 -3.140625 8.773438 -3.296875 9.578125 -3.609375 L 9.96875 -3.796875 Z M 10.84375 -2.015625 "/></g></g></g><g fill="#219ebc" fill-opacity="1"><g transform="translate(241.978627, 71.243249)"><g><path d="M 0.71875 -6.53125 C 0.71875 -9.519531 1.625 -11.84375 3.4375 -13.5 C 5.257812 -15.164062 7.507812 -16 10.1875 -16 C 12.039062 -16 13.523438 -15.59375 14.640625 -14.78125 C 15.765625 -13.976562 16.328125 -12.90625 16.328125 -11.5625 C 16.328125 -10.570312 16.023438 -9.691406 15.421875 -8.921875 C 14.816406 -8.148438 14.082031 -7.5625 13.21875 -7.15625 C 11.382812 -6.332031 9.796875 -5.835938 8.453125 -5.671875 L 7.546875 -5.5625 C 7.816406 -3.96875 8.613281 -3.171875 9.9375 -3.171875 C 10.507812 -3.171875 11.144531 -3.296875 11.84375 -3.546875 C 12.539062 -3.804688 13.097656 -4.066406 13.515625 -4.328125 L 14.125 -4.703125 L 15.28125 -3.140625 C 15.28125 -3.140625 15.148438 -3.007812 14.890625 -2.75 C 14.742188 -2.601562 14.398438 -2.316406 13.859375 -1.890625 C 13.316406 -1.472656 12.75 -1.109375 12.15625 -0.796875 C 11.5625 -0.484375 10.804688 -0.203125 9.890625 0.046875 C 8.984375 0.304688 8.070312 0.4375 7.15625 0.4375 C 5.101562 0.4375 3.515625 -0.15625 2.390625 -1.34375 C 1.273438 -2.539062 0.71875 -4.269531 0.71875 -6.53125 Z M 7.40625 -7.953125 C 8.101562 -8.046875 8.800781 -8.613281 9.5 -9.65625 C 10.195312 -10.707031 10.546875 -11.585938 10.546875 -12.296875 C 10.546875 -13.003906 10.34375 -13.359375 9.9375 -13.359375 C 9.332031 -13.359375 8.773438 -12.890625 8.265625 -11.953125 C 7.765625 -11.015625 7.476562 -9.679688 7.40625 -7.953125 Z M 7.40625 -7.953125 "/></g></g></g><g fill="#219ebc" fill-opacity="1"><g transform="translate(257.728219, 71.243249)"><g><path d="M 1.765625 0.21875 L 1.484375 0.21875 C 1.410156 -0.113281 1.375 -0.632812 1.375 -1.34375 C 1.375 -2.0625 1.664062 -3.90625 2.25 -6.875 C 2.84375 -9.851562 3.140625 -11.539062 3.140625 -11.9375 C 3.140625 -12.332031 3.03125 -12.738281 2.8125 -13.15625 C 2.601562 -13.582031 2.390625 -13.90625 2.171875 -14.125 L 1.84375 -14.453125 L 1.921875 -14.984375 C 3.359375 -15.441406 5.753906 -15.671875 9.109375 -15.671875 C 9.421875 -15.078125 9.613281 -14.367188 9.6875 -13.546875 C 11.15625 -15.179688 12.453125 -16 13.578125 -16 C 15.046875 -16 15.851562 -14.757812 16 -12.28125 C 15.957031 -12.226562 15.898438 -12.148438 15.828125 -12.046875 C 15.753906 -11.941406 15.582031 -11.753906 15.3125 -11.484375 C 15.050781 -11.222656 14.773438 -10.984375 14.484375 -10.765625 C 13.671875 -10.210938 12.804688 -9.890625 11.890625 -9.796875 C 11.859375 -9.796875 11.691406 -10.054688 11.390625 -10.578125 C 11.097656 -11.109375 10.847656 -11.375 10.640625 -11.375 C 10.429688 -11.375 10.050781 -11.160156 9.5 -10.734375 C 9.425781 -10.296875 9.285156 -9.554688 9.078125 -8.515625 C 8.878906 -7.484375 8.71875 -6.628906 8.59375 -5.953125 C 8.238281 -4.171875 8.0625 -2.679688 8.0625 -1.484375 L 8.09375 -0.390625 C 7.03125 0.015625 4.921875 0.21875 1.765625 0.21875 Z M 1.765625 0.21875 "/></g></g></g></svg>